<?xml version="1.0"?>
<svg xmlns="http://www.w3.org/2000/svg" width="282.357" height="41.797">
<polygon fill="#003C83" points="28.682,16.318 9.164,16.318 9.164,0 0,0 0,41.797 9.164,41.797 9.164,24.488 28.682,24.488 28.682,41.797 37.842,41.797 37.842,0 28.682,0 "/>
<path fill="#003C83" d="M227.679,2.384c-1.923,1.967-2,4.837-2.05,6.51v32.903h9.148V28.461h19.438v13.336h9.188V0h-28.561 C232.129,0.025,229.59,0.419,227.679,2.384z M237.113,8.167h17.104V20.3h-19.438v-9.746c0.038-0.48-0.054-1.35,0.352-1.865 C235.563,8.146,236.253,8.19,237.113,8.167z"/>
<path fill="#003C83" d="M162.863,0H134.25v41.797h9.164V8.167h17.182c0.854,0.023,1.554-0.021,1.979,0.521 c0.409,0.515,0.328,1.385,0.357,1.865v31.243h9.155V8.894c-0.051-1.673-0.123-4.543-2.037-6.51 C168.129,0.419,165.593,0.025,162.863,0z"/>
<path fill="#003C83" d="M116.979,31.239c-0.033,0.49,0.05,1.341-0.354,1.86c-0.435,0.548-1.131,0.5-1.981,0.523H97.467V0h-9.168 v41.797h28.62c2.722-0.021,5.26-0.426,7.175-2.391c1.923-1.964,1.996-4.83,2.048-6.509V0h-9.16v31.239H116.979z"/>
<path fill="#003C83" d="M218.029,8.894c-0.045-1.673-0.12-4.543-2.034-6.51c-1.915-1.965-4.457-2.359-7.176-2.384h-19.452h-9.155 v41.797h28.607c2.719-0.021,5.261-0.426,7.176-2.391c1.914-1.964,1.989-4.83,2.034-6.509V8.894L218.029,8.894z M208.902,31.239 c-0.032,0.49,0.052,1.341-0.35,1.86c-0.43,0.548-1.135,0.5-1.986,0.523h-17.199V8.167h17.199c0.853,0.023,1.558-0.021,1.986,0.521 c0.4,0.515,0.316,1.385,0.35,1.865V31.239z"/>
<polygon fill="#003C83" points="63.079,18.287 51.964,0 41.079,0 58.184,26.351 58.184,41.797 67.968,41.797 67.968,26.351  85.069,0 74.181,0 "/>
<rect x="272.587" fill="#003C83" width="9.771" height="41.797"/>
</svg>