<?xml version="1.0" encoding="UTF-8" ?>
<!DOCTYPE svg PUBLIC "-//W3C//DTD SVG 1.1//EN" "http://www.w3.org/Graphics/SVG/1.1/DTD/svg11.dtd">
<svg width="764pt" height="282pt" viewBox="0 0 764 282" version="1.1" xmlns="http://www.w3.org/2000/svg">
<g id="#ffffffff">
</g>
<g id="#d9a606ff">
<path fill="#d9a606" opacity="1.00" d=" M 7.10 12.99 C 9.12 10.07 10.19 6.27 13.50 4.47 C 31.01 4.71 48.52 4.52 66.02 4.56 C 77.53 4.23 88.93 9.84 96.22 18.65 C 102.57 26.09 104.38 36.43 103.16 45.91 C 102.05 53.25 99.40 60.69 94.04 66.01 C 89.48 70.67 83.48 73.54 77.35 75.54 C 86.99 86.27 96.33 97.33 106.94 107.14 C 121.15 119.23 138.44 126.82 155.78 133.27 C 160.88 135.25 166.01 137.17 171.30 138.60 C 168.78 143.83 163.22 146.77 158.13 149.03 C 144.82 154.19 129.76 152.33 116.73 147.21 C 98.89 139.85 83.92 127.05 70.96 112.99 C 63.76 104.94 57.22 96.26 51.84 86.88 C 51.98 95.21 51.44 103.61 52.23 111.89 C 55.60 115.91 63.36 116.08 64.55 122.17 C 61.64 125.80 59.94 130.25 56.76 133.67 C 41.97 133.85 27.13 133.99 12.37 133.61 C 9.53 129.02 5.66 124.54 4.86 119.07 C 8.87 116.40 13.54 114.96 17.49 112.20 C 17.73 110.48 17.97 108.77 18.02 107.04 C 18.04 82.03 18.00 57.01 18.04 32.00 C 17.86 29.64 18.24 26.60 15.95 25.12 C 12.42 22.57 8.21 21.22 4.29 19.40 C 4.45 16.96 5.76 14.93 7.10 12.99 M 14.29 9.39 C 12.87 11.80 11.63 14.34 10.81 17.02 C 15.00 18.79 19.99 20.50 22.06 24.92 C 23.00 27.83 22.50 30.99 22.60 34.00 C 22.58 59.71 22.59 85.41 22.58 111.12 C 22.56 112.80 22.50 114.77 20.96 115.84 C 17.71 118.18 13.80 119.32 10.19 120.97 C 11.44 123.87 13.01 126.60 14.79 129.21 C 27.94 129.15 41.10 129.29 54.24 129.15 C 56.50 127.25 57.44 124.12 59.20 121.75 C 56.19 118.28 50.74 118.66 47.91 115.01 C 47.16 113.11 47.35 111.01 47.27 109.01 C 47.41 99.16 47.10 89.31 47.15 79.46 C 49.01 79.47 50.86 79.48 52.72 79.48 C 65.23 102.15 83.02 122.28 105.06 136.06 C 116.06 143.09 128.88 147.66 142.04 147.52 C 149.58 147.56 157.05 145.36 163.29 141.12 C 141.30 132.76 118.46 124.32 100.98 107.96 C 90.91 98.03 81.57 87.40 72.44 76.61 C 71.45 75.44 70.64 74.13 69.86 72.82 C 78.27 70.87 86.98 67.69 92.62 60.82 C 98.92 52.16 100.52 40.52 97.51 30.32 C 94.67 21.20 86.60 14.46 77.87 11.19 C 71.54 8.58 64.60 9.29 57.93 9.22 C 43.38 9.35 28.83 9.02 14.29 9.39 Z" />
<path fill="#d9a606" opacity="1.00" d=" M 47.35 23.24 C 53.85 22.90 60.87 23.06 66.49 26.79 C 70.45 29.43 72.19 34.40 71.84 39.02 C 71.39 47.13 67.69 55.10 61.71 60.61 C 57.81 64.38 51.81 64.88 46.76 63.62 C 47.30 50.17 46.99 36.70 47.35 23.24 M 51.87 27.62 C 51.76 37.83 51.62 48.05 51.65 58.26 C 51.86 58.59 52.27 59.24 52.48 59.56 C 58.03 59.50 61.79 54.57 64.06 50.04 C 66.52 45.00 68.55 38.87 66.42 33.38 C 63.43 28.48 57.04 27.96 51.87 27.62 Z" />
<path fill="#d9a606" opacity="1.00" d=" M 136.57 24.80 C 144.55 23.02 153.07 23.94 160.41 27.57 C 173.04 33.69 182.21 46.29 184.44 60.12 C 186.31 71.71 184.40 84.12 178.00 94.09 C 173.08 102.42 165.06 108.85 155.86 111.84 C 143.97 115.43 130.45 112.85 120.63 105.28 C 114.83 101.26 110.74 95.20 107.94 88.82 C 102.26 74.02 103.16 56.46 111.72 42.93 C 117.44 34.17 126.32 27.27 136.57 24.80 M 137.24 29.36 C 125.59 32.39 116.07 41.71 111.83 52.86 C 108.87 60.68 108.42 69.29 109.56 77.51 C 111.12 87.55 116.35 97.46 125.19 102.87 C 134.87 109.50 148.10 110.92 158.76 105.82 C 164.60 103.02 169.40 98.36 173.15 93.14 C 180.65 82.33 182.34 68.07 178.59 55.57 C 175.57 45.22 167.96 36.40 158.34 31.59 C 151.81 28.55 144.27 27.69 137.24 29.36 Z" />
<path fill="#d9a606" opacity="1.00" d=" M 184.92 26.70 C 187.57 26.15 190.32 26.47 193.02 26.40 C 203.00 26.51 213.00 26.18 222.98 26.59 C 224.65 30.64 227.20 34.46 227.54 38.94 C 226.14 39.97 224.76 41.02 223.36 42.05 C 225.17 45.61 227.72 48.69 229.98 51.95 C 232.59 49.47 234.57 46.42 236.45 43.37 C 237.37 41.31 234.70 40.21 233.59 38.98 C 234.36 34.80 235.65 30.75 236.86 26.69 C 245.57 26.11 254.31 26.58 263.03 26.46 C 264.97 26.34 266.89 26.69 268.64 27.55 C 269.89 31.84 272.87 35.66 272.85 40.28 C 268.27 42.18 262.93 43.51 260.06 47.94 C 254.60 55.58 249.43 63.42 244.01 71.09 C 240.67 75.38 242.44 81.05 242.16 86.02 C 242.46 88.36 241.65 91.51 243.96 93.04 C 246.44 94.52 249.14 95.59 251.75 96.82 C 252.14 100.36 249.43 103.00 247.98 105.96 C 246.95 107.41 246.31 109.89 244.12 109.80 C 234.76 110.10 225.39 109.84 216.02 110.02 C 213.91 109.89 211.01 110.47 209.79 108.22 C 207.87 104.96 205.43 101.70 205.17 97.80 C 207.67 96.01 210.15 94.06 213.16 93.21 C 215.33 89.87 214.52 85.70 214.57 81.93 C 214.72 78.82 212.83 76.25 211.25 73.76 C 206.21 66.21 200.68 58.99 195.49 51.54 C 193.69 49.00 191.82 46.41 189.15 44.72 C 186.54 42.84 183.28 42.14 180.67 40.28 C 180.05 37.79 181.46 35.38 182.02 33.00 C 182.87 30.87 183.00 28.22 184.92 26.70 M 187.31 31.23 C 186.70 33.39 186.10 35.56 185.51 37.73 C 190.59 39.32 195.20 42.44 197.93 47.10 C 202.99 54.31 208.24 61.39 213.35 68.57 C 216.28 72.52 219.52 76.87 219.25 82.05 C 219.06 86.22 219.49 90.53 218.52 94.59 C 216.36 97.04 212.92 97.89 210.21 99.63 C 211.23 101.53 212.26 103.43 213.26 105.34 C 223.20 105.38 233.14 105.42 243.07 105.29 C 244.15 103.39 245.28 101.51 246.41 99.63 C 243.49 97.91 240.24 96.61 237.84 94.13 C 237.64 88.07 237.26 82.02 237.41 75.96 C 237.52 71.87 240.27 68.61 242.41 65.35 C 247.34 58.32 252.16 51.19 257.10 44.16 C 259.53 40.52 263.72 38.94 267.62 37.43 C 266.81 35.37 266.01 33.31 265.23 31.23 C 256.83 30.81 248.41 30.90 240.02 31.21 C 239.64 33.29 239.31 35.38 239.02 37.47 C 240.54 38.23 242.02 39.06 243.45 39.99 C 240.18 47.45 234.93 53.89 230.14 60.43 C 226.25 53.31 219.52 47.70 217.20 39.80 C 218.98 38.94 220.76 38.10 222.55 37.26 C 221.81 35.24 221.08 33.22 220.37 31.19 C 209.36 30.87 198.32 30.88 187.31 31.23 Z" />
<path fill="#d9a606" opacity="1.00" d=" M 292.89 26.37 C 300.66 26.47 308.44 26.11 316.20 26.58 C 324.46 48.09 331.85 69.95 340.19 91.44 C 343.30 92.69 346.76 93.57 349.26 95.94 C 349.73 100.53 346.54 104.64 345.42 109.00 C 344.04 109.64 342.59 110.15 341.05 110.01 C 332.03 109.96 323.01 109.99 313.99 110.01 C 312.49 109.95 310.40 110.13 309.73 108.42 C 308.53 105.00 307.44 101.52 306.64 97.98 C 306.27 95.52 308.97 94.48 310.45 93.09 C 310.22 91.71 309.85 90.36 309.15 89.14 C 303.02 89.20 296.89 88.94 290.77 89.25 C 290.36 90.56 289.94 91.86 289.53 93.17 C 291.08 94.07 292.69 94.89 294.09 96.03 C 294.91 97.47 294.15 99.03 293.68 100.43 C 292.52 103.60 291.28 106.75 289.87 109.82 C 280.35 109.97 270.75 110.31 261.26 109.67 C 259.00 105.59 257.71 101.05 255.50 96.94 C 255.84 96.45 256.54 95.45 256.88 94.96 C 260.37 93.94 263.74 92.57 267.06 91.11 C 272.55 76.11 278.79 61.39 284.53 46.48 C 287.30 39.78 289.55 32.83 292.89 26.37 M 295.42 31.12 C 288.09 50.39 280.26 69.47 272.82 88.70 C 271.83 91.18 270.92 93.96 268.57 95.49 C 266.27 96.77 263.69 97.43 261.24 98.36 C 262.23 100.66 263.17 102.99 264.02 105.35 C 271.59 105.56 279.17 105.19 286.74 105.53 C 287.68 103.25 288.63 100.98 289.57 98.70 C 287.62 97.19 283.74 96.33 284.65 93.16 C 285.30 90.16 286.77 87.43 287.86 84.58 C 296.09 84.51 304.31 84.67 312.54 84.48 C 314.02 88.18 316.04 91.86 315.91 95.97 C 314.36 96.62 312.83 97.28 311.29 97.94 C 312.04 100.47 312.80 103.00 313.61 105.52 C 322.93 105.46 332.25 105.26 341.57 105.53 C 342.79 103.10 343.76 100.56 344.57 97.96 C 341.71 96.82 338.45 96.09 336.26 93.79 C 333.91 89.12 332.60 83.99 330.64 79.15 C 324.98 63.13 318.73 47.31 313.34 31.20 C 307.37 30.80 301.39 30.81 295.42 31.12 Z" />
<path fill="#d9a606" opacity="1.00" d=" M 358.99 26.65 C 370.52 26.05 382.10 26.44 393.65 26.46 C 395.79 30.28 399.76 33.93 399.48 38.55 C 396.99 40.95 393.73 42.28 390.69 43.81 C 390.23 59.30 390.31 74.83 390.64 90.32 C 400.56 91.73 412.07 89.95 419.07 82.16 C 420.38 81.15 421.93 78.47 423.77 80.08 C 427.06 83.36 431.24 85.88 433.65 89.94 C 429.50 97.56 424.49 104.67 420.25 112.23 C 415.94 114.49 410.23 114.18 407.01 110.28 C 392.04 109.50 376.96 110.24 361.95 109.93 C 360.41 109.99 358.90 109.31 358.19 107.91 C 356.25 104.67 353.63 101.60 353.08 97.74 C 356.04 95.61 359.11 93.63 362.47 92.18 C 363.31 84.80 362.74 77.36 362.91 69.95 C 362.73 61.25 363.30 52.52 362.55 43.84 C 359.27 41.94 355.65 40.37 353.25 37.30 C 355.05 33.69 357.32 30.33 358.99 26.65 M 358.91 36.78 C 362.07 38.57 367.35 39.42 367.42 43.95 C 367.61 59.61 367.43 75.28 367.51 90.94 C 368.19 96.29 361.90 97.21 358.38 99.18 C 359.49 101.29 360.69 103.34 361.96 105.36 C 376.33 105.35 390.70 105.34 405.07 105.36 C 409.52 104.92 412.16 110.19 416.81 108.81 C 420.63 102.61 424.67 96.54 428.18 90.15 C 426.43 88.52 424.65 86.92 422.84 85.36 C 415.95 92.62 405.69 95.33 395.95 95.41 C 392.80 95.36 389.16 95.94 386.58 93.72 C 385.85 91.56 385.87 89.24 385.85 86.99 C 386.00 72.32 385.78 57.64 385.95 42.98 C 386.58 39.02 391.39 39.04 393.95 36.88 C 393.76 34.79 392.44 33.05 391.56 31.20 C 381.67 30.73 371.76 31.11 361.87 30.96 C 360.76 32.84 359.78 34.79 358.91 36.78 Z" />
<path fill="#d9a606" opacity="1.00" d=" M 142.49 39.67 C 146.02 38.31 149.63 40.59 151.49 43.53 C 155.84 50.19 157.81 58.17 158.34 66.04 C 158.75 74.75 157.59 83.80 153.59 91.63 C 151.58 95.03 148.36 98.85 143.98 98.32 C 138.56 97.88 135.75 92.40 133.90 87.96 C 129.48 76.09 129.22 62.53 133.61 50.61 C 135.52 46.36 137.90 41.51 142.49 39.67 M 135.95 58.89 C 134.10 70.07 134.90 82.59 141.48 92.17 C 142.37 92.79 143.25 93.42 144.13 94.06 C 148.67 93.09 150.33 88.34 151.61 84.45 C 155.28 72.39 154.48 58.79 148.70 47.52 C 147.95 45.78 146.36 44.65 145.03 43.39 C 139.28 46.24 137.31 53.10 135.95 58.89 Z" />
<path fill="#d9a606" opacity="1.00" d=" M 291.97 74.49 C 294.58 66.93 297.97 59.67 300.82 52.21 C 303.66 59.58 306.24 67.05 309.00 74.45 C 303.32 74.41 297.65 74.49 291.97 74.49 M 298.60 69.91 C 299.53 69.91 301.39 69.93 302.32 69.93 C 301.81 68.27 301.30 66.61 300.78 64.96 C 300.03 66.60 299.32 68.26 298.60 69.91 Z" />
<path fill="#d9a606" opacity="1.00" d=" M 247.91 125.92 C 249.35 124.63 250.24 122.78 251.89 121.73 C 255.29 121.39 258.72 121.64 262.14 121.56 C 267.03 127.95 270.61 135.22 275.03 141.93 C 276.71 145.34 279.75 148.29 280.22 152.16 C 276.91 156.20 272.83 159.56 269.02 163.11 C 267.40 164.49 265.96 162.08 264.83 161.16 C 256.19 151.68 242.61 147.20 230.01 149.19 C 227.63 149.55 228.05 152.29 227.83 154.06 C 227.64 162.22 227.82 170.39 227.72 178.55 C 230.83 178.76 233.94 178.82 237.06 178.81 C 238.17 177.63 239.28 176.45 240.38 175.25 C 244.58 175.37 250.92 172.91 253.20 177.84 C 258.09 185.90 263.33 193.74 268.30 201.74 C 270.35 204.44 267.22 206.73 265.46 208.44 C 262.38 211.00 260.19 214.87 256.23 216.21 C 251.14 211.49 246.80 205.56 240.16 202.90 C 236.57 201.26 232.54 201.83 228.73 201.79 C 228.28 203.49 227.72 205.20 227.73 206.98 C 227.76 218.98 227.78 230.98 227.73 242.98 C 227.72 245.04 227.81 247.28 229.19 248.95 C 241.31 249.95 254.47 250.57 265.43 244.39 C 269.75 242.18 272.73 238.28 276.06 234.90 C 278.09 233.95 279.37 236.09 280.72 237.20 C 283.52 240.08 286.68 242.60 289.36 245.60 C 290.63 247.42 289.10 249.56 288.22 251.21 C 282.97 259.66 278.18 268.41 272.67 276.69 C 269.16 277.14 265.53 277.56 262.05 276.71 C 259.25 274.87 256.68 272.08 253.04 272.21 C 232.71 272.07 212.37 272.09 192.04 272.22 C 190.63 272.15 188.87 272.38 188.00 270.99 C 185.48 267.42 183.65 263.41 181.35 259.70 C 183.82 255.44 189.06 254.57 192.70 251.73 C 194.54 250.40 194.35 248.04 194.34 246.03 C 194.15 213.63 194.53 181.21 194.16 148.82 C 191.70 143.87 184.47 144.54 181.41 140.13 C 183.35 135.34 185.70 130.71 188.77 126.53 C 206.83 126.20 224.90 126.46 242.96 126.41 C 244.59 126.29 246.37 126.63 247.91 125.92 M 253.81 126.33 C 251.95 129.30 248.54 130.99 245.06 130.94 C 227.00 131.11 208.92 130.72 190.85 131.13 C 189.43 133.69 188.18 136.34 187.13 139.07 C 190.77 140.37 194.51 141.91 197.20 144.79 C 199.02 146.75 198.93 149.57 198.98 152.06 C 198.89 184.72 199.01 217.38 198.81 250.04 C 199.09 256.43 190.96 256.88 187.46 260.27 C 187.63 262.82 189.92 265.04 190.89 267.46 C 212.24 267.75 233.61 267.46 254.96 267.61 C 258.77 267.38 261.29 270.47 264.14 272.41 C 266.69 272.72 270.26 273.45 271.39 270.37 C 275.70 262.88 280.47 255.63 284.52 248.00 C 283.13 245.01 279.88 243.25 277.77 240.73 C 274.17 243.15 271.35 246.62 267.40 248.56 C 255.77 255.07 241.91 254.55 229.04 253.74 C 225.29 253.50 222.92 249.54 223.22 246.03 C 223.18 231.68 223.11 217.33 223.23 202.98 C 223.31 200.87 223.49 197.56 226.28 197.46 C 230.67 196.96 235.18 196.87 239.54 197.69 C 246.49 199.92 251.76 205.31 256.94 210.19 C 259.35 207.95 261.72 205.66 263.93 203.22 C 258.87 195.43 253.82 187.63 249.07 179.65 C 247.01 179.57 244.95 179.51 242.90 179.47 C 241.39 180.82 239.85 182.12 238.28 183.39 C 234.83 183.32 231.38 183.52 227.94 183.41 C 225.49 183.51 223.19 181.41 223.34 178.90 C 223.00 170.93 223.25 162.95 223.18 154.97 C 223.27 152.03 223.04 148.60 225.33 146.35 C 227.75 143.71 231.73 144.46 234.94 144.20 C 247.27 143.87 259.69 148.76 268.02 157.94 C 270.41 155.63 272.77 153.30 275.09 150.92 C 270.09 142.75 265.07 134.61 260.28 126.32 C 258.12 126.28 255.96 126.27 253.81 126.33 Z" />
<path fill="#d9a606" opacity="1.00" d=" M 435.50 153.59 C 438.58 153.33 441.68 153.31 444.78 153.29 C 449.40 159.47 452.94 166.36 457.26 172.74 C 458.13 174.38 460.02 176.50 458.40 178.28 C 455.11 181.70 451.61 184.96 447.94 187.97 C 444.77 185.55 442.65 181.85 438.83 180.30 C 432.06 176.28 423.96 176.74 416.39 176.64 C 416.18 178.58 416.01 180.52 415.83 182.46 C 417.51 182.85 419.22 182.77 420.82 182.06 C 422.72 178.27 427.46 179.42 430.90 179.47 C 433.01 179.42 434.08 181.51 435.13 183.01 C 438.82 189.01 442.76 194.87 446.40 200.90 C 446.42 201.46 446.47 202.58 446.49 203.14 C 444.22 206.26 441.15 208.67 438.55 211.49 C 437.69 212.61 436.27 212.78 435.02 213.14 C 430.23 207.87 424.77 201.15 416.83 201.86 C 415.19 208.34 416.61 215.41 416.12 222.12 C 419.09 223.87 422.15 225.46 425.31 226.83 C 425.56 227.36 426.05 228.43 426.30 228.96 C 424.36 232.49 422.37 235.99 420.51 239.57 C 418.75 240.15 416.92 240.54 415.07 240.50 C 406.37 240.50 397.66 240.45 388.96 240.52 C 387.48 240.39 385.65 240.73 384.59 239.43 C 382.05 236.14 380.42 232.27 378.29 228.73 C 380.89 225.55 385.16 224.86 388.39 222.54 C 387.96 206.49 388.59 190.42 388.16 174.37 C 384.80 173.07 381.47 171.67 378.20 170.13 C 379.30 165.98 381.73 162.33 383.79 158.60 C 384.49 156.97 386.51 157.24 387.97 157.04 C 402.00 156.98 416.04 157.12 430.08 157.00 C 432.57 157.32 434.02 155.18 435.50 153.59 M 431.07 161.58 C 416.58 161.54 402.08 161.63 387.58 161.53 C 386.27 163.52 385.11 165.60 384.08 167.74 C 387.48 169.23 392.90 170.28 392.85 174.97 C 392.90 189.97 392.88 204.98 392.87 219.98 C 392.67 222.17 393.04 224.83 391.39 226.56 C 389.20 228.04 386.61 228.79 384.22 229.89 C 385.27 231.82 386.30 233.76 387.32 235.70 C 397.35 236.18 407.41 235.99 417.44 235.76 C 418.45 233.73 419.48 231.72 420.54 229.71 C 417.97 228.45 415.39 227.20 412.79 226.03 C 412.03 224.10 411.46 222.09 411.55 220.01 C 411.64 213.00 411.41 205.98 411.75 198.97 C 412.15 198.59 412.93 197.84 413.33 197.46 C 417.56 197.19 422.04 197.02 425.87 199.18 C 429.83 200.90 432.71 204.16 435.99 206.82 C 438.23 206.06 439.75 203.42 441.66 201.89 C 437.75 195.81 433.94 189.68 430.00 183.62 C 424.99 182.84 421.95 188.05 417.03 187.46 C 415.11 187.43 412.91 187.11 411.64 185.52 C 411.09 181.82 411.45 178.08 411.41 174.36 C 414.55 171.41 419.07 172.22 423.00 172.10 C 432.12 171.95 441.70 174.91 448.06 181.69 C 450.05 179.95 452.18 178.31 453.74 176.14 C 450.50 170.52 446.97 165.05 443.60 159.50 C 442.63 157.32 439.90 158.16 438.03 157.92 C 436.52 160.30 433.93 161.81 431.07 161.58 Z" />
<path fill="#d9a606" opacity="1.00" d=" M 565.35 153.51 C 568.41 153.38 571.48 153.35 574.56 153.36 C 579.69 160.11 583.61 167.70 588.23 174.81 C 589.95 176.85 587.75 178.97 586.22 180.25 C 583.14 182.78 580.76 186.22 577.03 187.89 C 573.80 183.36 569.30 179.79 563.91 178.22 C 559.10 176.75 554.02 176.75 549.05 176.79 C 549.07 178.76 548.85 180.78 549.33 182.73 C 552.12 183.51 554.43 181.72 556.02 179.64 C 559.71 179.63 564.82 177.95 567.26 181.69 C 571.18 187.79 574.99 193.98 578.95 200.06 C 579.99 201.37 579.87 203.38 578.58 204.48 C 575.46 207.62 572.37 210.81 568.93 213.60 C 563.34 208.56 557.88 200.57 549.25 202.19 C 549.02 208.32 549.16 214.46 549.15 220.59 C 558.66 220.47 569.34 222.71 577.59 216.63 C 580.95 215.13 582.68 210.56 586.56 210.42 C 589.67 212.63 592.50 215.25 595.23 217.90 C 596.74 219.29 595.55 221.41 594.74 222.83 C 590.93 229.00 587.45 235.36 583.54 241.46 C 581.45 245.20 576.63 243.67 573.17 243.84 C 571.10 242.14 568.80 240.29 565.93 240.59 C 550.97 240.47 536.00 240.64 521.04 240.47 C 519.80 240.44 518.64 239.98 517.47 239.65 C 515.47 236.04 513.47 232.42 511.36 228.87 C 513.54 225.31 518.31 225.15 521.37 222.55 C 521.20 206.53 521.37 190.50 521.29 174.47 C 517.93 173.11 514.57 171.75 511.34 170.12 C 512.19 165.53 515.46 161.96 517.19 157.72 C 519.10 157.33 521.02 156.99 522.98 156.96 C 535.35 157.03 547.74 157.17 560.11 156.93 C 562.59 157.28 563.94 155.10 565.35 153.51 M 562.05 161.48 C 548.22 161.66 534.39 161.61 520.56 161.50 C 519.34 163.56 518.17 165.64 517.06 167.75 C 519.63 168.84 522.44 169.59 524.65 171.37 C 525.95 172.92 525.84 175.12 525.95 177.03 C 525.95 190.70 525.90 204.36 525.97 218.02 C 526.01 220.75 525.68 223.47 525.21 226.16 C 522.64 227.43 520.07 228.70 517.49 229.93 C 518.47 231.87 519.43 233.82 520.38 235.78 C 536.29 236.28 552.21 235.80 568.13 236.06 C 572.32 235.81 574.90 240.27 579.24 239.62 C 583.29 233.16 587.22 226.61 590.87 219.92 C 589.07 218.80 587.61 216.21 585.32 216.36 C 581.87 219.11 578.41 221.97 574.20 223.50 C 567.47 226.41 560.03 225.13 552.94 225.42 C 550.38 225.55 547.83 225.34 545.36 224.70 C 544.12 219.91 544.67 214.94 544.57 210.06 C 544.62 206.39 544.32 202.69 544.89 199.05 C 546.08 196.89 549.02 197.51 551.08 197.31 C 558.36 197.09 564.25 202.28 569.03 207.17 C 571.00 205.53 572.89 203.81 574.73 202.03 C 570.89 195.92 566.96 189.87 563.13 183.75 C 560.79 183.77 558.36 183.81 556.56 185.50 C 553.17 188.31 548.45 187.73 544.63 186.22 C 544.38 182.20 544.37 178.18 544.41 174.16 C 545.71 173.47 546.95 172.54 548.44 172.29 C 559.00 171.17 570.48 173.86 578.03 181.70 C 579.99 179.93 581.90 178.10 583.74 176.20 C 580.07 170.01 576.08 164.01 572.32 157.87 C 570.87 157.93 569.44 157.99 568.01 158.05 C 566.30 159.59 564.61 161.72 562.05 161.48 Z" />
<path fill="#d9a606" opacity="1.00" d=" M 680.54 157.43 C 681.48 155.88 683.52 156.49 685.02 156.29 C 693.05 156.30 701.07 156.22 709.10 156.32 C 722.20 156.81 735.38 161.18 745.51 169.63 C 753.12 176.46 758.65 185.80 760.05 196.01 C 761.80 208.31 758.24 221.56 749.82 230.81 C 742.09 238.60 730.59 240.94 719.98 240.64 C 706.97 240.38 693.93 241.07 680.94 240.26 C 679.23 236.81 677.43 233.41 675.80 229.93 C 676.00 229.40 676.41 228.35 676.61 227.82 C 679.07 226.12 681.78 224.82 684.24 223.13 C 685.38 221.71 684.85 219.67 685.03 217.99 C 684.74 203.32 685.03 188.64 684.57 173.97 C 681.98 172.39 679.31 170.94 676.64 169.51 C 676.37 168.90 675.82 167.67 675.55 167.06 C 677.23 163.86 678.43 160.39 680.54 157.43 M 680.86 166.85 C 684.09 168.41 689.41 169.41 689.25 173.98 C 689.40 190.33 689.53 206.68 689.53 223.03 C 689.52 227.49 684.11 228.30 681.06 230.18 C 682.05 232.06 682.64 234.29 684.19 235.79 C 696.45 236.39 708.76 235.90 721.03 236.03 C 728.77 236.20 736.81 234.76 743.32 230.38 C 749.67 225.86 753.20 218.43 754.99 211.03 C 757.56 200.48 755.09 189.02 748.82 180.22 C 740.28 168.05 725.36 162.10 710.95 161.00 C 701.89 160.62 692.81 161.16 683.76 160.69 C 682.63 162.67 681.67 164.73 680.86 166.85 Z" />
<path fill="#d9a606" opacity="1.00" d=" M 289.57 157.75 C 292.15 156.43 295.17 157.14 297.95 157.02 C 305.40 157.29 312.91 156.51 320.31 157.56 C 328.01 166.92 335.31 176.60 343.17 185.82 C 343.41 182.05 343.76 178.15 342.38 174.53 C 339.40 172.64 335.30 172.44 332.84 169.97 C 333.70 165.44 336.62 161.63 338.56 157.52 C 343.33 156.78 348.16 157.07 352.96 157.05 C 357.74 157.10 362.55 156.75 367.29 157.48 C 369.08 161.00 371.30 164.27 373.09 167.78 C 373.80 168.79 373.55 169.99 373.35 171.11 C 370.23 172.01 366.50 172.61 364.56 175.51 C 363.12 177.35 363.41 179.79 363.31 181.98 C 363.36 199.99 363.26 218.00 363.37 236.01 C 363.51 237.59 363.02 239.09 362.47 240.54 C 357.55 240.33 352.62 240.76 347.72 240.33 C 345.70 239.94 344.65 237.97 343.46 236.52 C 334.91 224.44 326.00 212.62 317.39 200.59 C 316.59 199.47 315.59 198.53 314.57 197.62 C 314.31 206.05 314.62 214.49 314.43 222.92 C 317.63 224.61 320.86 226.25 324.02 228.03 C 323.56 232.19 320.44 235.27 318.93 239.04 C 318.43 239.40 317.44 240.12 316.94 240.47 C 309.30 240.51 301.66 240.43 294.03 240.52 C 292.20 240.49 290.05 240.73 288.78 239.10 C 286.56 235.89 285.24 232.15 283.37 228.73 C 285.99 225.83 289.97 225.00 293.33 223.27 C 293.33 207.13 293.57 190.99 293.21 174.87 C 289.78 173.26 286.40 171.49 283.32 169.28 C 284.98 165.24 286.89 161.20 289.57 157.75 M 289.15 167.47 C 291.56 168.83 294.11 170.00 296.27 171.74 C 298.35 173.55 297.78 176.58 297.95 179.03 C 297.84 193.70 298.11 208.39 297.82 223.05 C 297.97 227.68 292.37 228.39 289.20 230.10 C 290.12 231.99 290.92 233.99 292.19 235.69 C 299.79 236.24 307.47 235.96 315.09 235.81 C 316.48 234.15 317.41 232.17 318.48 230.30 C 315.91 228.90 313.36 227.48 310.80 226.10 C 310.02 223.79 309.68 221.38 309.83 218.96 C 310.16 207.56 309.54 196.15 310.09 184.76 C 311.66 185.46 312.96 186.59 313.89 188.03 C 325.50 204.03 337.19 219.97 348.78 235.98 C 352.08 235.99 355.39 235.95 358.69 235.81 C 358.93 216.21 358.76 196.60 358.79 176.99 C 358.45 171.83 363.97 169.62 367.75 167.62 C 366.61 165.72 365.54 163.78 364.55 161.81 C 356.83 161.57 349.10 161.75 341.38 161.71 C 340.49 163.67 339.52 165.59 338.49 167.48 C 341.74 169.33 346.23 170.44 347.77 174.18 C 348.14 182.38 347.98 190.61 347.80 198.81 C 337.24 186.80 327.83 173.80 317.51 161.58 C 309.07 161.79 300.62 161.77 292.17 161.59 C 291.17 163.55 290.17 165.52 289.15 167.47 Z" />
<path fill="#d9a606" opacity="1.00" d=" M 464.96 157.69 C 469.90 156.42 475.02 157.24 480.06 157.04 C 486.83 157.25 493.65 156.56 500.39 157.45 C 502.14 161.06 504.15 164.57 506.72 167.67 C 506.41 168.57 506.61 169.94 505.46 170.28 C 502.53 171.79 499.47 173.01 496.47 174.35 C 496.35 188.92 496.35 203.49 496.38 218.06 C 496.42 219.40 496.39 220.78 496.72 222.09 C 499.57 224.47 503.08 225.91 505.89 228.38 C 505.42 232.89 501.91 236.20 500.21 240.26 C 494.14 240.82 488.05 240.45 481.97 240.56 C 476.27 240.44 470.54 240.86 464.86 240.20 C 463.05 236.63 461.24 233.06 459.26 229.59 C 459.30 229.05 459.37 227.96 459.41 227.42 C 462.45 225.89 465.52 224.41 468.49 222.76 C 468.76 206.61 468.55 190.46 468.59 174.32 C 465.62 172.95 462.64 171.59 459.67 170.26 C 459.47 169.77 459.07 168.80 458.87 168.32 C 460.96 164.81 463.02 161.28 464.96 157.69 M 464.92 167.62 C 468.16 169.12 473.17 170.46 473.14 174.85 C 473.24 190.25 473.14 205.64 473.23 221.04 C 473.15 222.58 473.22 224.23 472.45 225.63 C 470.26 227.64 467.37 228.62 464.78 229.96 C 465.80 231.95 466.84 233.94 467.89 235.92 C 477.77 235.97 487.66 236.20 497.53 235.76 C 498.52 233.83 499.55 231.93 500.60 230.03 C 498.17 228.61 495.57 227.44 493.34 225.70 C 491.60 224.36 491.88 221.92 491.78 219.98 C 491.82 206.32 491.84 192.67 491.78 179.02 C 491.72 176.49 492.09 173.99 492.57 171.52 C 495.20 169.90 497.98 168.56 500.82 167.35 C 499.61 165.41 498.39 163.49 497.17 161.57 C 487.42 161.58 477.68 161.58 467.94 161.60 C 466.83 163.55 465.82 165.56 464.92 167.62 Z" />
<path fill="#d9a606" opacity="1.00" d=" M 601.85 157.49 C 603.87 157.10 605.93 156.88 608.00 156.94 C 617.59 157.10 627.19 156.81 636.78 157.07 C 638.97 160.28 640.84 163.71 642.76 167.09 C 642.68 167.62 642.54 168.68 642.46 169.21 C 639.73 171.32 636.72 173.00 633.66 174.56 C 633.36 189.87 633.57 205.19 633.55 220.50 C 642.46 222.83 652.74 220.58 660.01 214.88 C 662.13 213.50 663.44 210.01 666.35 210.45 C 669.88 213.80 674.49 216.38 676.69 220.87 C 672.13 228.29 667.54 235.68 663.06 243.15 C 659.92 244.38 656.52 244.06 653.23 243.92 C 652.19 242.83 651.14 241.74 650.11 240.65 C 635.05 240.40 619.98 240.70 604.91 240.51 C 601.52 240.49 600.26 236.75 598.58 234.45 C 597.13 232.35 594.85 228.79 597.97 227.01 C 600.35 224.40 605.88 224.33 605.89 220.06 C 606.04 207.03 605.85 194.00 605.96 180.98 C 605.91 178.81 606.06 176.57 605.40 174.48 C 602.69 172.46 599.33 171.40 596.94 168.97 C 596.58 164.63 600.48 161.41 601.85 157.49 M 604.94 161.74 C 603.57 163.40 602.85 165.45 602.03 167.41 C 604.96 169.21 609.94 169.84 610.45 173.91 C 610.66 190.73 610.30 207.55 610.60 224.37 C 608.14 227.13 604.57 228.29 601.36 229.88 C 602.55 231.93 603.76 233.96 604.98 236.00 C 619.35 236.01 633.72 235.97 648.09 236.00 C 651.20 235.72 653.68 237.68 655.92 239.54 C 657.28 239.46 658.64 239.38 660.01 239.31 C 663.57 233.10 667.56 227.15 671.19 220.98 C 669.41 219.27 667.63 217.58 665.85 215.89 C 657.22 224.89 643.89 227.07 631.99 225.70 C 628.53 224.80 628.93 220.76 628.97 217.98 C 629.26 202.50 628.51 186.99 629.35 171.54 C 631.87 170.01 634.56 168.79 637.32 167.75 C 636.61 165.41 635.35 163.32 633.84 161.42 C 624.21 161.81 614.54 161.12 604.94 161.74 Z" />
<path fill="#d9a606" opacity="1.00" d=" M 707.65 172.49 C 714.63 171.15 722.52 173.25 727.28 178.70 C 734.41 186.63 736.64 198.16 734.66 208.45 C 733.61 214.35 730.07 219.97 724.60 222.66 C 719.37 225.31 713.32 224.92 707.65 224.47 C 707.92 207.15 707.88 189.81 707.65 172.49 M 712.44 177.19 C 712.31 191.37 712.36 205.56 712.41 219.75 C 718.55 221.11 725.77 218.51 728.46 212.54 C 732.36 203.98 731.26 193.55 726.66 185.47 C 723.96 180.35 718.30 176.76 712.44 177.19 Z" />
</g>
<g id="#fe0100ff">
<path fill="#fe0100" opacity="1.00" d=" M 14.29 9.39 C 28.83 9.02 43.38 9.35 57.93 9.22 C 64.60 9.29 71.54 8.58 77.87 11.19 C 86.60 14.46 94.67 21.20 97.51 30.32 C 100.52 40.52 98.92 52.16 92.62 60.82 C 86.98 67.69 78.27 70.87 69.86 72.82 C 70.64 74.13 71.45 75.44 72.44 76.61 C 81.57 87.40 90.91 98.03 100.98 107.96 C 118.46 124.32 141.30 132.76 163.29 141.12 C 157.05 145.36 149.58 147.56 142.04 147.52 C 128.88 147.66 116.06 143.09 105.06 136.06 C 83.02 122.28 65.23 102.15 52.72 79.48 C 50.86 79.48 49.01 79.47 47.15 79.46 C 47.10 89.31 47.41 99.16 47.27 109.01 C 47.35 111.01 47.16 113.11 47.91 115.01 C 50.74 118.66 56.19 118.28 59.20 121.75 C 57.44 124.12 56.50 127.25 54.24 129.15 C 41.10 129.29 27.94 129.15 14.79 129.21 C 13.01 126.60 11.44 123.87 10.19 120.97 C 13.80 119.32 17.71 118.18 20.96 115.84 C 22.50 114.77 22.56 112.80 22.58 111.12 C 22.59 85.41 22.58 59.71 22.60 34.00 C 22.50 30.99 23.00 27.83 22.06 24.92 C 19.99 20.50 15.00 18.79 10.81 17.02 C 11.63 14.34 12.87 11.80 14.29 9.39 M 47.35 23.24 C 46.99 36.70 47.30 50.17 46.76 63.62 C 51.81 64.88 57.81 64.38 61.71 60.61 C 67.69 55.10 71.39 47.13 71.84 39.02 C 72.19 34.40 70.45 29.43 66.49 26.79 C 60.87 23.06 53.85 22.90 47.35 23.24 Z" />
<path fill="#fe0100" opacity="1.00" d=" M 137.24 29.36 C 144.27 27.69 151.81 28.55 158.34 31.59 C 167.96 36.40 175.57 45.22 178.59 55.57 C 182.34 68.07 180.65 82.33 173.15 93.14 C 169.40 98.36 164.60 103.02 158.76 105.82 C 148.10 110.92 134.87 109.50 125.19 102.87 C 116.35 97.46 111.12 87.55 109.56 77.51 C 108.42 69.29 108.87 60.68 111.83 52.86 C 116.07 41.71 125.59 32.39 137.24 29.36 M 142.49 39.67 C 137.90 41.51 135.52 46.36 133.61 50.61 C 129.22 62.53 129.48 76.09 133.90 87.96 C 135.75 92.40 138.56 97.88 143.98 98.32 C 148.36 98.85 151.58 95.03 153.59 91.63 C 157.59 83.80 158.75 74.75 158.34 66.04 C 157.81 58.17 155.84 50.19 151.49 43.53 C 149.63 40.59 146.02 38.31 142.49 39.67 Z" />
<path fill="#fe0100" opacity="1.00" d=" M 187.31 31.23 C 198.32 30.88 209.36 30.87 220.37 31.19 C 221.08 33.22 221.81 35.24 222.55 37.26 C 220.76 38.10 218.98 38.94 217.20 39.80 C 219.52 47.70 226.25 53.31 230.14 60.43 C 234.93 53.89 240.18 47.45 243.45 39.99 C 242.02 39.06 240.54 38.23 239.02 37.47 C 239.31 35.38 239.64 33.29 240.02 31.21 C 248.41 30.90 256.83 30.81 265.23 31.23 C 266.01 33.31 266.81 35.37 267.62 37.43 C 263.72 38.94 259.53 40.52 257.10 44.16 C 252.16 51.19 247.34 58.32 242.41 65.35 C 240.27 68.61 237.52 71.87 237.41 75.96 C 237.26 82.02 237.64 88.07 237.84 94.13 C 240.24 96.61 243.49 97.91 246.41 99.63 C 245.28 101.51 244.15 103.39 243.07 105.29 C 233.14 105.42 223.20 105.38 213.26 105.34 C 212.26 103.43 211.23 101.53 210.21 99.63 C 212.92 97.89 216.36 97.04 218.52 94.59 C 219.49 90.53 219.06 86.22 219.25 82.05 C 219.52 76.87 216.28 72.52 213.35 68.57 C 208.24 61.39 202.99 54.31 197.93 47.10 C 195.20 42.44 190.59 39.32 185.51 37.73 C 186.10 35.56 186.70 33.39 187.31 31.23 Z" />
<path fill="#fe0100" opacity="1.00" d=" M 295.42 31.12 C 301.39 30.81 307.37 30.80 313.34 31.20 C 318.73 47.31 324.98 63.13 330.64 79.15 C 332.60 83.99 333.91 89.12 336.26 93.79 C 338.45 96.09 341.71 96.82 344.57 97.96 C 343.76 100.56 342.79 103.10 341.57 105.53 C 332.25 105.26 322.93 105.46 313.61 105.52 C 312.80 103.00 312.04 100.47 311.29 97.94 C 312.83 97.28 314.36 96.62 315.91 95.97 C 316.04 91.86 314.02 88.18 312.54 84.48 C 304.31 84.67 296.09 84.51 287.86 84.58 C 286.77 87.43 285.30 90.16 284.65 93.16 C 283.74 96.33 287.62 97.19 289.57 98.70 C 288.63 100.98 287.68 103.25 286.74 105.53 C 279.17 105.19 271.59 105.56 264.02 105.35 C 263.17 102.99 262.23 100.66 261.24 98.36 C 263.69 97.43 266.27 96.77 268.57 95.49 C 270.92 93.96 271.83 91.18 272.82 88.70 C 280.26 69.47 288.09 50.39 295.42 31.12 M 291.97 74.49 C 297.65 74.49 303.32 74.41 309.00 74.45 C 306.24 67.05 303.66 59.58 300.82 52.21 C 297.97 59.67 294.58 66.93 291.97 74.49 Z" />
<path fill="#fe0100" opacity="1.00" d=" M 358.91 36.78 C 359.78 34.79 360.76 32.84 361.87 30.96 C 371.76 31.11 381.67 30.73 391.56 31.20 C 392.44 33.05 393.76 34.79 393.95 36.88 C 391.39 39.04 386.58 39.02 385.95 42.98 C 385.78 57.64 386.00 72.32 385.85 86.99 C 385.87 89.24 385.85 91.56 386.58 93.72 C 389.16 95.94 392.80 95.36 395.95 95.41 C 405.69 95.33 415.95 92.62 422.84 85.36 C 424.65 86.92 426.43 88.52 428.18 90.15 C 424.67 96.54 420.63 102.61 416.81 108.81 C 412.16 110.19 409.52 104.92 405.07 105.36 C 390.70 105.34 376.33 105.35 361.96 105.36 C 360.69 103.34 359.49 101.29 358.38 99.18 C 361.90 97.21 368.19 96.29 367.51 90.94 C 367.43 75.28 367.61 59.61 367.42 43.95 C 367.35 39.42 362.07 38.57 358.91 36.78 Z" />
<path fill="#fe0100" opacity="1.00" d=" M 253.81 126.33 C 255.96 126.27 258.12 126.28 260.28 126.32 C 265.07 134.61 270.09 142.75 275.09 150.92 C 272.77 153.30 270.41 155.63 268.02 157.94 C 259.69 148.76 247.27 143.87 234.94 144.20 C 231.73 144.46 227.75 143.71 225.33 146.35 C 223.04 148.60 223.27 152.03 223.18 154.97 C 223.25 162.95 223.00 170.93 223.34 178.90 C 223.19 181.41 225.49 183.51 227.94 183.41 C 231.38 183.52 234.83 183.32 238.28 183.39 C 239.85 182.12 241.39 180.82 242.90 179.47 C 244.95 179.51 247.01 179.57 249.07 179.65 C 253.82 187.63 258.87 195.43 263.93 203.22 C 261.72 205.66 259.35 207.95 256.94 210.19 C 251.76 205.31 246.49 199.92 239.54 197.69 C 235.18 196.87 230.67 196.96 226.28 197.46 C 223.49 197.56 223.31 200.87 223.23 202.98 C 223.11 217.33 223.18 231.68 223.22 246.03 C 222.92 249.54 225.29 253.50 229.04 253.74 C 241.91 254.55 255.77 255.07 267.40 248.56 C 271.35 246.62 274.17 243.15 277.77 240.73 C 279.88 243.25 283.13 245.01 284.52 248.00 C 280.47 255.63 275.70 262.88 271.39 270.37 C 270.26 273.45 266.69 272.72 264.14 272.41 C 261.29 270.47 258.77 267.38 254.96 267.61 C 233.61 267.46 212.24 267.75 190.89 267.46 C 189.92 265.04 187.63 262.82 187.46 260.27 C 190.96 256.88 199.09 256.43 198.81 250.04 C 199.01 217.38 198.89 184.72 198.98 152.06 C 198.93 149.57 199.02 146.75 197.20 144.79 C 194.51 141.91 190.77 140.37 187.13 139.07 C 188.18 136.34 189.43 133.69 190.85 131.13 C 208.92 130.72 227.00 131.11 245.06 130.94 C 248.54 130.99 251.95 129.30 253.81 126.33 Z" />
<path fill="#fe0100" opacity="1.00" d=" M 431.07 161.58 C 433.93 161.81 436.52 160.30 438.03 157.92 C 439.90 158.16 442.63 157.32 443.60 159.50 C 446.97 165.05 450.50 170.52 453.74 176.14 C 452.18 178.31 450.05 179.95 448.06 181.69 C 441.70 174.91 432.12 171.95 423.00 172.10 C 419.07 172.22 414.55 171.41 411.41 174.36 C 411.45 178.08 411.09 181.82 411.64 185.52 C 412.91 187.11 415.11 187.43 417.03 187.46 C 421.95 188.05 424.99 182.84 430.00 183.62 C 433.94 189.68 437.75 195.81 441.66 201.89 C 439.75 203.42 438.23 206.06 435.99 206.82 C 432.71 204.16 429.83 200.90 425.87 199.18 C 422.04 197.02 417.56 197.19 413.33 197.46 C 412.93 197.84 412.15 198.59 411.75 198.97 C 411.41 205.98 411.64 213.00 411.55 220.01 C 411.46 222.09 412.03 224.10 412.79 226.03 C 415.39 227.20 417.97 228.45 420.54 229.71 C 419.48 231.72 418.45 233.73 417.44 235.76 C 407.41 235.99 397.35 236.18 387.32 235.70 C 386.30 233.76 385.27 231.82 384.22 229.89 C 386.61 228.79 389.20 228.04 391.39 226.56 C 393.04 224.83 392.67 222.17 392.87 219.98 C 392.88 204.98 392.90 189.97 392.85 174.97 C 392.90 170.28 387.48 169.23 384.08 167.74 C 385.11 165.60 386.27 163.52 387.58 161.53 C 402.08 161.63 416.58 161.54 431.07 161.58 Z" />
<path fill="#fe0100" opacity="1.00" d=" M 562.05 161.48 C 564.61 161.72 566.30 159.59 568.01 158.05 C 569.44 157.99 570.87 157.93 572.32 157.87 C 576.08 164.01 580.07 170.01 583.74 176.20 C 581.90 178.10 579.99 179.93 578.03 181.70 C 570.48 173.86 559.00 171.17 548.44 172.29 C 546.95 172.54 545.71 173.47 544.41 174.16 C 544.37 178.18 544.38 182.20 544.63 186.22 C 548.45 187.73 553.17 188.31 556.56 185.50 C 558.36 183.81 560.79 183.77 563.13 183.75 C 566.96 189.87 570.89 195.92 574.73 202.03 C 572.89 203.81 571.00 205.53 569.03 207.17 C 564.25 202.28 558.36 197.09 551.08 197.31 C 549.02 197.51 546.08 196.89 544.89 199.05 C 544.32 202.69 544.62 206.39 544.57 210.06 C 544.67 214.94 544.12 219.91 545.36 224.70 C 547.83 225.34 550.38 225.55 552.94 225.42 C 560.03 225.13 567.47 226.41 574.20 223.50 C 578.41 221.97 581.87 219.11 585.32 216.36 C 587.61 216.21 589.07 218.80 590.87 219.92 C 587.22 226.61 583.29 233.16 579.24 239.62 C 574.90 240.27 572.32 235.81 568.13 236.06 C 552.21 235.80 536.29 236.28 520.38 235.78 C 519.43 233.82 518.47 231.87 517.49 229.93 C 520.07 228.70 522.64 227.43 525.21 226.16 C 525.68 223.47 526.01 220.75 525.97 218.02 C 525.90 204.36 525.95 190.70 525.95 177.03 C 525.84 175.12 525.95 172.92 524.65 171.37 C 522.44 169.59 519.63 168.84 517.06 167.75 C 518.17 165.64 519.34 163.56 520.56 161.50 C 534.39 161.61 548.22 161.66 562.05 161.48 Z" />
<path fill="#fe0100" opacity="1.00" d=" M 604.94 161.74 C 614.54 161.12 624.21 161.81 633.84 161.42 C 635.35 163.32 636.61 165.41 637.32 167.75 C 634.56 168.79 631.87 170.01 629.35 171.54 C 628.51 186.99 629.26 202.50 628.97 217.98 C 628.93 220.76 628.53 224.80 631.99 225.70 C 643.89 227.07 657.22 224.89 665.85 215.89 C 667.63 217.58 669.41 219.27 671.19 220.98 C 667.56 227.15 663.57 233.10 660.01 239.31 C 658.64 239.38 657.28 239.46 655.92 239.54 C 653.68 237.68 651.20 235.72 648.09 236.00 C 633.72 235.97 619.35 236.01 604.98 236.00 C 603.76 233.96 602.55 231.93 601.36 229.88 C 604.57 228.29 608.14 227.13 610.60 224.37 C 610.30 207.55 610.66 190.73 610.45 173.91 C 609.94 169.84 604.96 169.21 602.03 167.41 C 602.85 165.45 603.57 163.40 604.94 161.74 Z" />
<path fill="#fe0100" opacity="1.00" d=" M 680.86 166.85 C 681.67 164.73 682.63 162.67 683.76 160.69 C 692.81 161.16 701.89 160.62 710.95 161.00 C 725.36 162.10 740.28 168.05 748.82 180.22 C 755.09 189.02 757.56 200.48 754.99 211.03 C 753.20 218.43 749.67 225.86 743.32 230.38 C 736.81 234.76 728.77 236.20 721.03 236.03 C 708.76 235.90 696.45 236.39 684.19 235.79 C 682.64 234.29 682.05 232.06 681.06 230.18 C 684.11 228.30 689.52 227.49 689.53 223.03 C 689.53 206.68 689.40 190.33 689.25 173.98 C 689.41 169.41 684.09 168.41 680.86 166.85 M 707.65 172.49 C 707.88 189.81 707.92 207.15 707.65 224.47 C 713.32 224.92 719.37 225.31 724.60 222.66 C 730.07 219.97 733.61 214.35 734.66 208.45 C 736.64 198.16 734.41 186.63 727.28 178.70 C 722.52 173.25 714.63 171.15 707.65 172.49 Z" />
<path fill="#fe0100" opacity="1.00" d=" M 289.15 167.47 C 290.17 165.52 291.17 163.55 292.17 161.59 C 300.62 161.77 309.07 161.79 317.51 161.58 C 327.83 173.80 337.24 186.80 347.80 198.81 C 347.98 190.61 348.14 182.38 347.77 174.18 C 346.23 170.44 341.74 169.33 338.49 167.48 C 339.52 165.59 340.49 163.67 341.38 161.71 C 349.10 161.75 356.83 161.57 364.55 161.81 C 365.54 163.78 366.61 165.72 367.75 167.62 C 363.97 169.62 358.45 171.83 358.79 176.99 C 358.76 196.60 358.93 216.21 358.69 235.81 C 355.39 235.95 352.08 235.99 348.78 235.98 C 337.19 219.97 325.50 204.03 313.89 188.03 C 312.96 186.59 311.66 185.46 310.09 184.76 C 309.54 196.15 310.16 207.56 309.83 218.96 C 309.68 221.38 310.02 223.79 310.80 226.10 C 313.36 227.48 315.91 228.90 318.48 230.30 C 317.41 232.17 316.48 234.15 315.09 235.81 C 307.47 235.96 299.79 236.24 292.19 235.69 C 290.92 233.99 290.12 231.99 289.20 230.10 C 292.37 228.39 297.97 227.68 297.82 223.05 C 298.11 208.39 297.84 193.70 297.95 179.03 C 297.78 176.58 298.35 173.55 296.27 171.74 C 294.11 170.00 291.56 168.83 289.15 167.47 Z" />
<path fill="#fe0100" opacity="1.00" d=" M 464.92 167.62 C 465.82 165.56 466.83 163.55 467.94 161.60 C 477.68 161.58 487.42 161.58 497.17 161.57 C 498.39 163.49 499.61 165.41 500.82 167.35 C 497.98 168.56 495.20 169.90 492.57 171.52 C 492.09 173.99 491.72 176.49 491.78 179.02 C 491.84 192.67 491.82 206.32 491.78 219.98 C 491.88 221.92 491.60 224.36 493.34 225.70 C 495.57 227.44 498.17 228.61 500.60 230.03 C 499.55 231.93 498.52 233.83 497.53 235.76 C 487.66 236.20 477.77 235.97 467.89 235.92 C 466.84 233.94 465.80 231.95 464.78 229.96 C 467.37 228.62 470.26 227.64 472.45 225.63 C 473.22 224.23 473.15 222.58 473.23 221.04 C 473.14 205.64 473.24 190.25 473.14 174.85 C 473.17 170.46 468.16 169.12 464.92 167.62 Z" />
</g>
</svg>
