<svg xmlns="http://www.w3.org/2000/svg" width="640" height="400" viewBox="0 0 640 400" role="img" aria-label="Chetak">
  <defs>
    <linearGradient id="bg" x1="0" y1="0" x2="1" y2="1">
      <stop offset="0%" stop-color="#fee2e2"/>
      <stop offset="100%" stop-color="#fecaca"/>
    </linearGradient>
  </defs>
  <rect width="640" height="400" rx="24" fill="url(#bg)"/>
  <path d="M170 210l60-45h160l70 45h-50c-3 22-20 36-43 36s-40-14-43-36H255c-3 22-20 36-43 36s-40-14-43-36h-49z M212 246a21 21 0 100-42 21 21 0 000 42z M367 246a21 21 0 100-42 21 21 0 000 42z M260 150l36-26h58l38 26z" fill="#7f1d1d" opacity="0.85"/>
  <text x="320" y="340" text-anchor="middle" font-family="Arial, Helvetica, sans-serif" font-size="40" font-weight="700" fill="#111827">Chetak</text>
</svg>