<svg xmlns="http://www.w3.org/2000/svg" width="640" height="400" viewBox="0 0 640 400" role="img" aria-label="Kwid">
  <defs>
    <linearGradient id="bg" x1="0" y1="0" x2="1" y2="1">
      <stop offset="0%" stop-color="#dbeafe"/>
      <stop offset="100%" stop-color="#bfdbfe"/>
    </linearGradient>
  </defs>
  <rect width="640" height="400" rx="24" fill="url(#bg)"/>
  <path d="M120 180h360l24 38v42h-36c-3-29-24-47-53-47s-50 18-53 47H278c-3-29-24-47-53-47s-50 18-53 47h-52v-80z M230 260a26 26 0 100-52 26 26 0 000 52z M415 260a26 26 0 100-52 26 26 0 000 52z M170 170l55-55h120l60 55z" fill="#1d3557" opacity="0.85"/>
  <text x="320" y="340" text-anchor="middle" font-family="Arial, Helvetica, sans-serif" font-size="40" font-weight="700" fill="#111827">Kwid</text>
</svg>